PathFileType	4	(X/Y/Z)	./resultDataOpenSim/trcMotMarkerGrf/sub09/qtm-03-03.trc
DataRate	CameraRate	NumFrames	NumMarkers	Units	OrigDataRate	OrigDataStartFrame	OrigNumFrames
250.000000	250.000000	8	24	m	250.000000	120	478
Frame#	Time	L.Toe.Tip			R.Toe.Tip			L.Ankle.Lat			R.Ankle.Lat			L.Ankle.Med			R.Ankle.Med			L.Heel			R.Heel			L.Knee.Lat			R.Knee.Lat			L.Knee.Med			R.Knee.Med			L.Thigh.Upper			R.Thigh.Upper			L.ASIS			R.ASIS			V.Sacral			L.Acromium			R.Acromium			C7			L.Elbow			R.Elbow			L.Wrist.Lat			R.Wrist.Lat
		X1	Y1	Z1	X2	Y2	Z2	X3	Y3	Z3	X4	Y4	Z4	X5	Y5	Z5	X6	Y6	Z6	X7	Y7	Z7	X8	Y8	Z8	X9	Y9	Z9	X10	Y10	Z10	X11	Y11	Z11	X12	Y12	Z12	X13	Y13	Z13	X14	Y14	Z14	X15	Y15	Z15	X16	Y16	Z16	X17	Y17	Z17	X18	Y18	Z18	X19	Y19	Z19	X20	Y20	Z20	X21	Y21	Z21	X22	Y22	Z22	X23	Y23	Z23	X24	Y24	Z24

120	0.476	-0.25087912	0.093374002	0.0073125791	-0.69477799	0.039592423	0.094165779	-0.40027257	0.097643056	-0.035195893	-0.84102912	0.056580314	0.11996194	-0.38354644	0.12063473	0.060358166	-0.82733634	0.0928972	0.028158377	-0.46092291	0.04560259	0.011880246	-0.90863352	0.035736933	0.066398904	-0.42963886	0.51561136	-0.07264317	-0.69176402	0.49091184	0.18802298	-0.43546749	0.51168707	0.052177685	-0.71351427	0.48476277	0.059531251	-0.62522053	0.88844656	-0.12366373	-0.66204772	0.89495047	0.24548356	-0.55769874	0.97264745	-0.058378566	-0.55790403	0.97472381	0.18127511	-0.72496624	1.0323321	0.05794001	-0.55977313	1.4274772	-0.10859025	-0.57241407	1.4327533	0.22101581	-0.6305367	1.483289	0.05794111	-0.72590447	1.1034207	-0.16014372	-0.70003804	1.0885075	0.31768992	-0.62372973	0.86050875	-0.20351608	-0.52044663	0.87941693	0.28242813
121	0.48	-0.23316237	0.095892307	0.0088283393	-0.69480123	0.039473407	0.094166537	-0.38256594	0.096684983	-0.034318501	-0.84096336	0.056710286	0.11985277	-0.36655795	0.1204668	0.061215884	-0.8271694	0.092862762	0.027946971	-0.4420228	0.043303475	0.012696498	-0.90862648	0.035891718	0.066245195	-0.42364955	0.51348173	-0.072741676	-0.68924733	0.49043504	0.18825851	-0.4298106	0.50945977	0.052071188	-0.71118779	0.48433101	0.059660902	-0.6188708	0.88682144	-0.12349529	-0.65624965	0.89396977	0.24544038	-0.55109912	0.97118963	-0.058140144	-0.55176096	0.97353004	0.18159843	-0.71862422	1.0308364	0.058034986	-0.55375905	1.4262592	-0.10864053	-0.56628422	1.4314953	0.22101958	-0.62431147	1.4819432	0.057745763	-0.72075997	1.102779	-0.16033654	-0.69360312	1.0871292	0.31786955	-0.61997083	0.85943851	-0.20427238	-0.51362257	0.87845479	0.28216405
122	0.484	-0.21584065	0.098583802	0.010243386	-0.69481089	0.039375658	0.094218671	-0.36514932	0.096002987	-0.033465963	-0.84098754	0.056830896	0.1197887	-0.34989868	0.12043205	0.062021803	-0.82700776	0.092830211	0.027744039	-0.42340486	0.041244719	0.013446132	-0.90861511	0.036069625	0.066078368	-0.41767329	0.5112852	-0.072877533	-0.6867148	0.48996165	0.18859496	-0.42412784	0.50709638	0.052033846	-0.70883352	0.48386134	0.059777548	-0.61241265	0.88513324	-0.12331121	-0.65043095	0.89292197	0.24538705	-0.54447399	0.96968012	-0.057896485	-0.54556775	0.9722948	0.18191487	-0.71228166	1.0292366	0.05833648	-0.54773451	1.4249608	-0.10869476	-0.56017272	1.4301806	0.22102548	-0.61812998	1.480529	0.057602691	-0.71554129	1.1020376	-0.16044441	-0.68716239	1.0856812	0.31802031	-0.61626745	0.85828212	-0.20508895	-0.50681859	0.87740761	0.28193265
123	0.488	-0.19893839	0.10145057	0.011568247	-0.69481691	0.039290237	0.094308933	-0.34808805	0.09554845	-0.032665562	-0.8410496	0.05697762	0.11977121	-0.33361884	0.12051078	0.062787484	-0.82681017	0.092825598	0.027597768	-0.40509311	0.03939823	0.014115996	-0.90859862	0.036279215	0.065897778	-0.41163668	0.50904263	-0.073013214	-0.68407232	0.48956823	0.18907549	-0.41838206	0.50461899	0.052074218	-0.70638779	0.48335932	0.059920477	-0.60588198	0.88337829	-0.12311394	-0.64470989	0.89180758	0.24544618	-0.53781991	0.96812485	-0.057646371	-0.53934855	0.97101617	0.18222111	-0.70589861	1.0275115	0.058792726	-0.54169836	1.4235762	-0.10875035	-0.5540864	1.4288106	0.22104289	-0.6120368	1.4790624	0.057571257	-0.71025659	1.1011949	-0.16044935	-0.6807167	1.0841676	0.31814266	-0.61260154	0.85705094	-0.20595508	-0.50004171	0.87627641	0.28173218
124	0.492	-0.1824802	0.10448115	0.012807132	-0.69483233	0.039199825	0.094421359	-0.33144552	0.095256013	-0.031948294	-0.84109823	0.057152451	0.11976462	-0.31776361	0.12069197	0.063479556	-0.82656568	0.092864976	0.02752507	-0.38714448	0.03775746	0.014708123	-0.90857308	0.036532538	0.065702657	-0.4055026	0.50676954	-0.073107764	-0.68134746	0.48925686	0.189653	-0.41253547	0.50204654	0.052213041	-0.70380802	0.48283644	0.060101394	-0.59929418	0.88155304	-0.12290722	-0.63936763	0.89064181	0.24588357	-0.53113676	0.96652561	-0.057389091	-0.5331113	0.96969424	0.18252521	-0.69952984	1.025623	0.059423589	-0.5356317	1.4221097	-0.10879666	-0.54800299	1.4273828	0.22107227	-0.60599369	1.4775466	0.057604448	-0.7049611	1.1002735	-0.16045519	-0.67426787	1.0825901	0.31823475	-0.60889852	0.85575889	-0.20683127	-0.49329794	0.87506175	0.28156295
125	0.496	-0.1664951	0.10764472	0.013957529	-0.6948593	0.039096006	0.094547114	-0.31524731	0.09509977	-0.031339675	-0.84111756	0.05735069	0.11973766	-0.30234321	0.12095981	0.064050932	-0.82628516	0.092947557	0.027504361	-0.36960745	0.036308926	0.015204142	-0.90853796	0.036840283	0.065493432	-0.39929108	0.50446863	-0.073136294	-0.67869566	0.48890422	0.1901685	-0.40652221	0.49940498	0.052500717	-0.70109336	0.48229671	0.060302902	-0.59265076	0.87966295	-0.12268998	-0.63457452	0.88942775	0.24685239	-0.52442228	0.96488251	-0.057127886	-0.52684605	0.96832507	0.18283684	-0.69324595	1.0235407	0.060289363	-0.52951322	1.4205654	-0.10882788	-0.54190374	1.4258961	0.2211027	-0.59995391	1.4759668	0.05763547	-0.6997256	1.0993017	-0.16060889	-0.6678169	1.0809468	0.31829222	-0.60508649	0.85441297	-0.20768345	-0.4865796	0.87376405	0.28142532
126	0.5	-0.15102182	0.11088664	0.015013103	-0.69488433	0.038988379	0.09467668	-0.29948877	0.09508265	-0.030848864	-0.84113113	0.057566772	0.11967062	-0.28735097	0.12127109	0.064468922	-0.82598137	0.093065674	0.027502014	-0.35251062	0.03502713	0.015553693	-0.90849712	0.037201031	0.065270575	-0.39303521	0.50214551	-0.073101158	-0.67601038	0.48835593	0.19047524	-0.40031117	0.49671869	0.052966895	-0.69825069	0.48173597	0.060512311	-0.58595516	0.87771434	-0.12245428	-0.6300197	0.8881429	0.24806057	-0.51767307	0.9632005	-0.056868275	-0.52054805	0.96689855	0.18315444	-0.68701307	1.0213301	0.061236801	-0.52334446	1.4189501	-0.10885293	-0.53579512	1.4243487	0.22112115	-0.59389842	1.4743109	0.057629897	-0.6945372	1.098281	-0.1609317	-0.66137094	1.0792385	0.31831822	-0.6011423	0.85301712	-0.20850332	-0.4798698	0.87238678	0.2813156
127	0.504	-0.13609147	0.11413031	0.015962892	-0.69489058	0.038892869	0.094799627	-0.28416288	0.095185264	-0.03046639	-0.84117062	0.057792262	0.11955115	-0.27281842	0.12156947	0.064749665	-0.82566169	0.093215385	0.027491341	-0.33589781	0.033898252	0.015723315	-0.90845101	0.037600599	0.065031465	-0.38673339	0.49981984	-0.073019035	-0.67260667	0.48747587	0.19049205	-0.39401069	0.49400252	0.053546952	-0.69528034	0.48115146	0.060725006	-0.57920454	0.87571334	-0.12219517	-0.62512197	0.8867709	0.24897504	-0.51088681	0.96148453	-0.056616513	-0.51423004	0.96540724	0.18346651	-0.68073009	1.0191299	0.061945892	-0.51714978	1.4172737	-0.10888591	-0.52969663	1.4227405	0.22112359	-0.58783287	1.4726014	0.057589498	-0.68925133	1.0971836	-0.16134078	-0.65495451	1.0774786	0.31833017	-0.59707049	0.85158063	-0.20929446	-0.47316491	0.87093238	0.28122942
